<?xml version="1.0" encoding="UTF-8"?>
<svg id="a" data-name="Capa 1" xmlns="http://www.w3.org/2000/svg" viewBox="0 0 329.1 92.3">
  <defs>
    <style>
      .b {
        fill: #fff;
      }
    </style>
  </defs>
  <path class="b" d="m16.7,86.9c1-.3,2-1.4,2-2.7,0-1.1-.3-1.9-1-2.4-.8-.6-1.7-.9-3-.9h-.7c-1.5,0-2.7.1-3.5.2v11.1h2.6v-4.4h.8c.2,0,.6,0,.8.1.6.1.8.7,1.1,1.7.2,1.3.6,2.2.7,2.6h2.7c-.2-.5-.6-1.9-.9-3.2-.3-1-.8-1.8-1.6-2.1Zm-2-1.1c-.2,0-.3.1-.6.1h-1v-3.2h1.5c.9.1,1.5.6,1.5,1.5.1,1-.5,1.5-1.4,1.6Zm-7.1-4c-.6-.6-1.6-.8-2.8-.9h-.7c-1.6,0-2.7.1-3.5.2v11.1h2.6v-4.1c.2.1.6.1.9.1h.7c1.2-.1,2.2-.6,3-1.2.7-.6,1-1.5,1-2.6.1-1.2-.4-2.1-1.2-2.6Zm-2.8,4.4c-.2,0-.4.1-.8.1-.3,0-.6-.1-.8-.1v-3.3c.1-.1.6-.1,1-.1h.6c1,.1,1.5.8,1.5,1.6,0,1-.6,1.6-1.5,1.8Zm134.3-5.2h-1.6l-3.6,11.2h2.7l.8-2.9h3.4l.9,2.9h2.8l-3.6-11.2h-1.8Zm0,6.4h-1.3l.7-2.5c.1-.6.3-1.5.5-2.1h.1v.1c.2.6.3,1.5.6,2l.7,2.5h-1.3Zm-10.5-6.4h-2.7v11.2h7.2v-2.1h-4.5v-9.1Zm-49.1,6.4h4.3v-2h-4.3v-2.4h4.5v-2h-7.1v11.2h7.3v-2.1h-4.7v-2.7h0Zm-16-6.4h-1.7l-3.5,11.2h2.7l.8-2.9h3.4l.9,2.9h2.8l-3.6-11.2h-1.8Zm0,6.4h-1.2l.7-2.5c.1-.6.3-1.5.4-2.1h.1v.1c.1.6.3,1.5.6,2l.7,2.5h-1.3Zm-42.8,4.8h2.6v-11.2h-2.6v11.2Zm13.2-11.2l-1.2,3.7c-.3,1.2-.8,2.7-1.1,4-.2-1.2-.7-2.7-1-4l-1.1-3.7h-3.5l-.7,11.2h2.4l.2-4.3c.1-1.4.1-3.2.2-4.6.3,1.5.7,3,1,4.4l1.2,4.3h2l1.5-4.4c.4-1.2.9-2.8,1.2-4.3h.1c0,1.7,0,3.3.1,4.6l.1,4.3h2.6l-.7-11.2h-3.3Zm8.6,6.4h4.2v-2h-4.2v-2.4h4.4v-2h-7v11.2h7.3v-2.1h-4.7v-2.7h0Zm77,0h4.2v-2h-4.2v-2.4h4.4v-2h-7.1v11.2h7.4v-2.1h-4.7v-2.7h0Zm-7.5,0c0,1.9-.7,2.8-2.1,2.8-1.2,0-2-.9-2-2.8v-6.4h-2.6v6.2c0,3.5,1.7,5.1,4.6,5.1s4.7-1.6,4.7-5.1v-6.2h-2.6v6.4Zm-11-4.6c.9,0,1.7.2,2.1.4l.6-2c-.4-.2-1.5-.4-2.8-.4-3.5,0-6.3,2.1-6.3,5.9,0,3.3,2,5.6,6.1,5.6,1.3,0,2.4-.2,2.9-.5l-.5-2c-.4.2-1.3.5-2.1.5-2.4,0-3.7-1.5-3.7-3.7,0-2.6,1.6-3.8,3.7-3.8Zm-10.5,2.7c-1.6-.6-2.1-.9-2.1-1.6,0-.6.5-1.1,1.6-1.1s2,.3,2.5.6l.6-2c-.7-.3-1.7-.6-2.9-.6-2.7,0-4.4,1.5-4.4,3.4,0,1.6,1.2,2.6,3.1,3.3,1.5.5,1.9.9,1.9,1.6,0,.8-.6,1.2-1.8,1.2-1.1,0-2.1-.3-2.8-.7l-.6,2c.7.3,1.9.7,3.3.7,3.1,0,4.6-1.6,4.6-3.4-.1-1.6-1-2.7-3-3.4Zm-35.3,1.4c1-.3,2-1.4,2-2.7,0-1.1-.4-1.9-1.1-2.4-.7-.6-1.7-.9-3-.9h-.7c-1.3,0-2.6.1-3.5.2v11.1h2.6v-4.4h.8c.3,0,.6,0,.8.1.6.1.9.7,1.1,1.7.3,1.3.6,2.2.8,2.6h2.7c-.2-.5-.6-1.9-1-3.2-.3-1-.7-1.8-1.5-2.1Zm-2.1-1.1c-.1,0-.3.1-.6.1h-1v-3.2h1.5c1,.1,1.6.6,1.6,1.5.1,1-.5,1.5-1.5,1.6Zm234.4,1.6h4.3v-2h-4.3v-2.4h4.5v-2h-7.1v11.2h7.3v-2.1h-4.7v-2.7Zm-35.4-6.4h-2.6v11.2h7.2v-2.1h-4.6v-9.1h0Zm26.8,0l-1.1,3.7c-.5,1.2-.8,2.7-1.1,4h-.1c-.2-1.2-.6-2.7-.9-4l-1.1-3.7h-3.5l-.8,11.2h2.5l.2-4.3c0-1.4.1-3.2.1-4.6h.1c.2,1.5.7,3,1,4.4l1.2,4.3h2l1.3-4.4c.5-1.2,1-2.8,1.3-4.3,0,1.7.1,3.3.1,4.6l.2,4.3h2.5l-.6-11.2h-3.3Zm-23.3,2h3v9.1h2.6v-9.1h3.1v-2h-8.8v2h.1Zm10.2,9.2h2.6v-11.2h-2.6v11.2Zm49.2-11.2h-1.6l-3.6,11.2h2.7l.8-2.9h3.4l.9,2.9h2.8l-3.6-11.2h-1.8Zm0,6.4h-1.2l.7-2.5c.1-.6.3-1.5.6-2.1v.1c.2.6.3,1.5.6,2l.7,2.5h-1.4Zm-154.4-5.4c-.8-.6-1.8-.9-3.3-1.1h-1.5c-1.3,0-2.6.1-3.5.2v11c.6.1,1.6.2,2.9.2.8,0,1.5-.1,2-.1,1.3-.2,2.5-.7,3.3-1.4,1.1-.9,1.9-2.4,1.9-4.5.1-2-.5-3.4-1.8-4.3Zm-3.2,8.1c-.4.1-.9.1-1.5.1h-.9v-7.3c.2-.1.6-.1,1.1-.1.4,0,.9,0,1.2.1,1.6.5,2.5,1.5,2.5,3.5.1,2-.8,3.3-2.4,3.7Zm148.5,2.1h2.6v-11.2h-2.6v11.2Zm-3.7-10.2c-.8-.6-1.8-.9-3.1-1.1h-1.6c-1.2,0-2.6.1-3.5.2v11c.7.1,1.6.2,2.9.2.8,0,1.5-.1,2.1-.1,1.2-.2,2.4-.7,3.3-1.4,1-.9,1.8-2.4,1.8-4.5.1-2-.6-3.4-1.9-4.3Zm-3.1,8.1c-.6.1-1,.1-1.6.1h-.9v-7.3c.2-.1.7-.1,1.2-.1.3,0,.8,0,1.2.1,1.5.5,2.4,1.5,2.4,3.5.1,2-.8,3.3-2.3,3.7Zm25.4-9.1h-2.6v11.2h7.2v-2.1h-4.6v-9.1h0Zm-128.9,5.9c1-.3,2-1.4,2-2.7,0-1.1-.3-1.9-1.1-2.4-.7-.6-1.7-.9-3-.9h-.7c-1.3,0-2.6.1-3.5.2v11.1h2.6v-4.4h.8c.3,0,.6,0,.8.1.6.1.9.7,1.1,1.7.3,1.3.7,2.2.8,2.6h2.7c-.2-.5-.6-1.9-.9-3.2-.4-1-.8-1.8-1.6-2.1Zm-2.1-1.1c-.1,0-.3.1-.6.1h-1v-3.2h1.5c1,.1,1.6.6,1.6,1.5,0,1-.5,1.5-1.5,1.6Zm51.2,1.6c0,1.9-.8,2.8-2.1,2.8s-2.1-.9-2.1-2.8v-6.4h-2.7v6.2c0,3.5,1.7,5.1,4.6,5.1s4.8-1.6,4.8-5.1v-6.2h-2.6v6.4h.1Zm-46.2-4.4h3v9.1h2.6v-9.1h3.1v-2h-8.8l.1,2h0Zm-16-2h-1.6l-3.5,11.2h2.7l.8-2.9h3.3l.9,2.9h2.8l-3.6-11.2h-1.8Zm0,6.4h-1.2l.7-2.5c.2-.6.3-1.5.6-2.1v.1c.2.6.5,1.5.6,2l.8,2.5h-1.5Zm28.8,0h4.1v-2h-4.1v-2.4h4.5v-2h-7.1v11.2h7.3v-2.1h-4.7v-2.7h0Zm-44.5,0h4.1v-2h-4.1v-2.4h4.4v-2h-6.8v11.2h7.2v-2.1h-4.8v-2.7Zm65.1-6.4l-1.2,3.7c-.3,1.2-.8,2.7-1.1,4-.3-1.2-.7-2.7-1-4l-1.1-3.7h-3.5l-.7,11.2h2.4l.2-4.3c.1-1.4.1-3.2.2-4.6.3,1.5.7,3,1,4.4l1.2,4.3h2l1.5-4.4c.4-1.2.9-2.8,1.2-4.3h.1c0,1.7,0,3.3.1,4.6l.1,4.3h2.6l-.7-11.2h-3.3Zm11.9-59.8c0,.8.3,1.6.9,2.2.6.6,1.4.9,2.1.9h0c1,0,2-.5,2.7-1.2s1.2-1.7,1.2-2.7c0-.8-.3-1.6-.8-2.2s-1.3-.9-2.1-.9c-1.1,0-2.1.4-2.8,1.2-.8.7-1.2,1.6-1.2,2.7Zm80.5,7.7l-1.3.6c-4.2,1.9-8.3,3.6-12.2,5l-.9.3,1,3.3,1-.4c2.1-.8,3.5-1.2,3.8-1.2h.1v.3c0,.1-.3,1.5-1.1,3.5s-2,4.8-3.6,8.4c-2.5,5.6-4.2,9.5-4.9,11.9-.8,2.4-1.2,5-1.4,7.9l-.1,1.4,1.3-.4c2-.6,5.7-2.2,11.2-4.8l.9-.4-1.4-3-.9.4c-1.4.6-2.4.8-2.6.8-.3,0-.4-.1-.4-.1v-.2c0-.1.2-1,.6-2.1.4-1.2,1.1-2.8,2-4.8,3.8-8.6,6.2-14.3,7.2-17.1,1-2.9,1.6-5.3,1.6-7.2v-.5l.1-1.6Zm-86.9,26.3c3.8-8.6,6.2-14.3,7.2-17.1,1-2.9,1.6-5.3,1.6-7.2v-2l-1.3.6c-4.2,1.9-8.3,3.6-12.2,5l-.9.3,1,3.3,1-.4c2.1-.8,3.5-1.2,3.8-1.2h.1v.3c0,.1-.3,1.5-1.1,3.5s-2,4.8-3.6,8.4c-2.5,5.6-4.2,9.5-4.9,11.9-.8,2.4-1.2,5-1.4,7.9l-.1,1.4,1.3-.4c2-.6,5.7-2.2,11.2-4.8l.9-.4-1.4-3-.9.4c-1.4.6-2.4.8-2.6.8h-.4v-.2c0-.1.2-1,.6-2.1.5-1.3,1.2-2.9,2.1-5Zm90.7-37.1c-.5-.6-1.3-.9-2.1-.9-1,0-2,.4-2.8,1.2-.8.7-1.2,1.7-1.2,2.8,0,.8.3,1.6.9,2.2.6.6,1.4.9,2.2.9h0c1,0,2-.5,2.7-1.2.7-.8,1.2-1.7,1.2-2.7-.1-.9-.4-1.7-.9-2.3Zm-193.9,12.8c-.5-.4-1.1-.5-1.7-.5-2,0-4.3.3-6.8.8-9.5,1.9-18,6.5-25.4,13.9-3,3-5.4,6.2-7.2,9.6-1.8,3.4-2.7,6.6-2.7,9.7,0,1.4.3,2.6,1,3.6.7.9,1.9,1.4,3.1,1.4,2.9,0,6.3-1.8,10.9-5.2,2.4-1.8,4.8-3.9,7.1-6.3-1.9,4.7-2.9,8.1-2.9,10.2v.3l.1,1.2,1.1-.3c2.6-.6,5-1.5,7.3-2.5s4.2-2.1,5.7-3.2l.7-.6-1.8-2.7-.8.5c-1,.6-1.8,1-2.5,1.3-.6.3-1,.4-1,.4h-.2v-.2c0-.2.3-1.5,1.1-3.4.8-1.9,1.9-4.6,3.4-8l.9-2-2.1.7c-1,.3-1.9.6-2.7.8,2.1-3.1,3.1-5.9,3.1-8.6,0-1.9-.6-3.5-1.8-4.5,2-.4,4.1-.7,6.2-.7s4.1.1,6.1.4l.7.1.3-.6c.9-1.7,1.3-2.8,1.4-3.8.2-.8-.1-1.4-.6-1.8Zm-24.3,23.7c-2.1,2.7-4.2,4.9-6.3,6.6-2.1,1.8-3.7,2.5-4.4,2.5-.6,0-.9-.2-1.2-.5-.3-.4-.5-1.1-.5-2.2,0-2.6.8-5.3,2.3-8.1,3.1-5.7,7.6-10.1,13.5-13.3,1.5-.8,3-1.5,4.7-2-1.3,6.1-4,11.7-8.1,17Zm150.4,13.7l-.1,1.3,1.3-.3c5-1,9.3-2.8,12.9-5.5l.7-.5-1.7-2.9-.9.6c-1.4,1.1-2.6,1.5-3.3,1.5h-.2v-.3s.1-.5.4-1.2c.8-2.2,3-6.8,6.4-13.5,2.4-4.8,4-8,4.7-9.7s1.2-3.1,1.2-4.3c0-.9-.2-1.8-.8-2.4s-1.4-.9-2.3-.9c-3.3,0-7.4,2.5-12.7,7-2.4,2.1-4.9,4.6-7.7,7.5,2.7-6.4,4-10.6,4-13,0-.2,0-.5-.1-.9l-.1-1.4-1.2.6c-3.5,1.6-7.4,3-11.6,4.2l-.8.2.6,3.4,1-.3c1.8-.5,3-.8,3.1-.8h.2s.1.2.1.5c0,.4-.3,1.7-1,3.7s-1.7,4.8-3,8.2c-2.7,6.9-5.5,13.2-8.2,18.8l-1.2,2.4,2.4-1c2.6-1.1,4.5-1.8,5.7-2.1l.5-.1.2-.5c3.1-7.1,6.8-13.3,11.1-18.5,2.4-2.9,5.1-5.6,7.9-8,1.4-1.2,2.6-2.1,3.5-2.7s1.5-.8,1.7-.8v.2c0,.1-.4,1.4-1.3,3.2-6.9,13.7-10.8,23-11.4,28.3Zm44.9-19l-.9-1.5-.8,1.5c-1.8,3.3-3,5.5-3.6,6.3-3.8,5.5-7.8,8-11.8,8-1.2,0-1.9-.3-2.4-1-.6-.7-.9-1.6-.9-3,0-2.2.7-5.1,2.2-8.5s3.3-6.7,5.6-9.7c1.4-1.8,2.8-3,4.1-3.7s3-1.1,4.9-1.1c1,0,1.6.1,1.9.3.3.2.2.1.2.3,0,.5-.6,2.4-1.8,5l-.7,1.4h3.7l7.2-13.5-1.5-.1c-.9-.1-1.5-.1-1.9-.1-4.6,0-9.4,1.7-14.2,5-4.9,3.3-9.1,7.6-12.5,12.9-3.3,5-4.9,9.8-4.9,14.5,0,2.3.5,4.3,1.7,5.6,1.2,1.4,3,2,5.1,2h0c4.6,0,9.4-2.5,14.8-7.3,4.6-4.1,7.1-7.7,7.1-11.1,0-.8-.2-1.6-.6-2.2Zm-212.3-1.4c3.4-6.5,5.2-12.9,5.2-19.3,0-3.7-.8-7.2-2.3-10.2s-3.7-5.5-6.5-7.4c-5.1-3.3-11.9-5-20.6-5-3.6,0-10.9.5-22.2,1.5-3.5.3-6.3.4-8.4.4-3,0-5.1-.2-5.9-.4-.4-.1-.7-.3-.8-.4-.1-.1-.1-.2-.1-.4,0-.7.1-1.9.5-3.5l.2-1-3.6-.5-.2.9-.1.7c-1,4.4-1.8,7.7-2.4,10l-.2.9.8.3c2.5.9,5.2,1.3,8.3,1.3s6-.1,8.7-.4c14-1.3,22.6-2,25.4-2,9.8,0,16.4,2.5,20,7.3,2.3,3.1,3.5,6.6,3.5,10.8,0,6.2-1.8,12.5-5.5,18.8-2.5,4.2-5.6,7.4-9.5,9.9-3.9,2.4-7.9,3.6-12.1,3.6-6.9,0-13.1-3.8-18.8-11.8-1.7-2.4-3.3-4.9-4.9-7.7,7.9-2.9,17.8-7,29.7-12.3,1.7-.8,3.1-1.3,4.1-1.7.5-.2.9-.3,1.2-.4.1,0,.3-.1.3-.1h.1c.3,0,.2,0,.2,0,0,0,.1.2.1.6,0,.1-.2,1-.6,2.2-.4,1.3-1,3.1-1.8,5.3-2.3,6.5-3.6,11.1-4,14.1l-.2,1.5,1.5-.5c4.1-1.3,7.7-2.6,10.8-3.7l.8-.3-1-3.5-1,.3c-1,.3-1.7.5-2.1.5-.5,0-.7-.1-.7-.1v-.2c0-.3.2-1.4.7-3s1.2-3.8,2.2-6.6c2.2-6.1,3.3-10.1,3.3-12.3,0-.5-.1-1-.3-1.5l-.4-1-2.3,1.1c-14.9,6.9-29.1,13-42.6,18.2-3.2-5.6-5.3-9.1-6.3-10.5-2.5-3.7-4.9-6.4-7.2-8.1-2.3-1.7-4.9-2.5-7.6-2.5-4.2,0-8.1,1.4-11.8,4.2C2.2,27.2-.1,31.6,0,37c0,4.2,1.5,7.7,4.5,10.3,2.8,2.4,6.5,3.6,10.8,3.6s10.5-1.4,19-4.2c5.2,8.4,8.7,13.4,10.7,15.4,4.6,4.5,10.3,6.9,16.9,6.9h0c5.1,0,9.9-1.3,14.4-3.8,7-3.8,12.5-9.6,16.6-17.3Zm-75.6-1.3c-3.9,0-7-1.1-9.5-3.2s-3.6-4.7-3.7-8c0-2.9,1-5.1,3.1-7.1,2-1.8,4.2-2.6,6.7-2.6,2.2,0,4.3.7,6.3,2,2,1.4,4.1,3.6,6.2,6.6,1.3,1.8,3.3,5,5.9,9.3-5.8,2.1-10.8,3-15,3Zm177.3,12.5c0,3.5-.2,6.8-.5,10l-.3,3,2-2.3c3.4-3.8,5.8-6.5,7.4-8.1,1.6-1.6,4.4-4.3,8.5-8.1,8.2-7.6,13.7-13.3,16.6-17,2.7-3.6,4.3-7.2,4.7-10.7,3.1-2.7,5.8-5.7,8.2-8.7,2.4-3.2,4.4-6.3,5.8-9.4l.7-1.5-1.6.1c-5.9.4-15.1.6-27.5.6-5,0-8.9-.1-11.5-.3h-.6l-.3.5c-1.2,1.7-2.5,3.2-3.8,4.3l-1.7,1.5,2.3.3c4.7.5,8.2,1.1,10.5,1.7,2.2.6,4.4,1.6,6.5,3,1.9,1.2,3.4,2.6,4.6,4.3,1,1.5,1.7,3,2,4.6-2.9,2.1-5.4,3.7-7.6,4.8-2.3,1.2-5.4,2.5-9.2,3.9-4.4,1.5-7.3,2.5-8.8,3.1-2.2-14.5-6.8-24.9-13.9-31.2-5.6-5-12.1-7.5-19.3-7.5-4.2,0-8.3.9-12.3,2.7-5.2,2.4-9.3,6-12.1,10.9-3.1,5.2-4.7,10.8-4.7,16.9,0,8.3,2.9,15.1,8.6,20.3,4.5,4.1,9.9,6.1,16,6.1,3.7,0,7.4-.9,10.9-2.8l.7-.4-.8-2.5-.9.3c-2.1.6-4,.9-5.9.9-2.7,0-5.6-.5-8.5-1.5-4.9-1.7-8.6-4.4-11.4-8.3-2.9-4-4.4-8.7-4.4-14.1,0-6.4,1.9-11.7,5.8-16.1,4-4.6,9-6.8,15.2-6.8,3.7,0,7.3.9,10.9,2.7,4.2,2.1,7.8,5.2,10.9,9.6,4,5.7,6.7,13.6,8,23.8-5.2,2.4-9.4,5.4-12.7,9-3.4,3.7-5.2,7.4-5.2,11.2,0,1.8.4,3.3,1.4,4.4s2.5,1.7,4.2,1.8l1.8.1-.8-1.6c-1.1-2.1-1.6-4-1.6-5.8,0-3.4,1.4-6.4,4.4-9,2.5-2.3,5.5-4.1,9.1-5.7,0,3.9.2,8.3.2,13Zm30.3-46.8l5.8-.1c3.9-.1,6.7-.1,8.4-.1-1.7,3.6-3.8,6.6-6.5,9.3-.5-2-1.6-3.9-3.1-5.5-1.3-1.3-2.8-2.5-4.6-3.6Zm-12.1,27.3h0c4.2-1.7,8.2-4,11.9-6.9-.8,1.7-1.8,3.4-3.2,5.1-2.2,2.8-6,6.8-11.4,12-3.9,3.7-6.9,6.6-8.9,8.7.1-2.2.2-4.7.2-7.4,0-2.9-.1-5.4-.3-7.6,2.7-.9,6.6-2.2,11.7-3.9Z"/>
</svg>